<?xml version="1.0"?>
<svg xmlns="http://www.w3.org/2000/svg" id="Layer_1" data-name="Layer 1" viewBox="0 0 819.87 334">
<defs>
    <style>
      .cls-1{fill:#101218;}
      .cls-2{fill:#FFF}
    </style>
</defs>
<title>Corum Logo</title>
<path class="cls-2" d="M60,0H759.82a60,60,0,0,1,60,60V324.68a9.32,9.32,0,0,1-9.32,9.32H60A60,60,0,0,1,0,274V60A60,60,0,0,1,60,0Z"/>
<path class="cls-1" d="M1218.16,1457.94q0,8.65-8.65,8.65h-14q-8.65,0-8.65-8.65v-32.14c0-17.72-6.18-23.07-20.19-23.07-13.6,0-19.78,5.36-19.78,23.07v134.31c0,17.3,6.18,23.07,19.78,23.07,14,0,20.19-5.77,20.19-23.07V1528c0-5.77,2.88-9.06,8.65-9.06h14c5.77,0,8.65,3.29,8.65,9.06v32.55c0,31.72-11.54,49-51.5,49s-51.5-17.3-51.5-49V1425.4c0-31.72,11.54-49,51.5-49s51.5,17.3,51.5,49Z" transform="translate(-1060.96 -1325)"/>
<path class="cls-1" d="M1354.11,1425.4v135.14c0,31.72-11.54,49-51.5,49s-51.5-17.3-51.5-49V1425.4c0-31.72,11.54-49,51.5-49S1354.11,1393.67,1354.11,1425.4Zm-71.28.41v134.31c0,17.3,6.18,23.07,19.78,23.07,14,0,20.19-5.77,20.19-23.07V1425.81c0-17.72-6.18-23.07-20.19-23.07C1289,1402.73,1282.84,1408.09,1282.84,1425.81Z" transform="translate(-1060.96 -1325)"/>
<path class="cls-1" d="M1490.07,1473.19c0,5.36-2.88,8.65-8.65,8.65h-14c-5.77,0-8.65-3.3-8.65-8.65v-46.56c0-17.3-4.94-23.07-18.54-23.07-14,0-21.42,7.42-21.42,24.72v170.57c0,5.36-3.3,8.65-9.06,8.65h-13.6c-5.77,0-9.06-3.3-9.06-8.65V1387.08c0-5.77,3.3-8.65,9.06-8.65h13.6c5.77,0,9.06,2.88,9.06,8.65v5.36c10.3-10.3,24.72-16.07,37.49-16.07,18.13,0,33.78,11.54,33.78,37.9Z" transform="translate(-1060.96 -1325)"/>
<path class="cls-1" d="M1514.79,1387.08c0-5.77,3.3-8.65,9.06-8.65h13.6c5.77,0,9.06,2.88,9.06,8.65v171.81c0,17.72,4.53,23.07,18.13,23.07,14,0,21.84-7,21.84-24.31V1387.08q0-8.65,8.65-8.65h14q8.65,0,8.65,8.65v211.77c0,5.36-2.88,8.65-8.65,8.65h-14c-5.77,0-8.65-3.3-8.65-8.65v-5.36c-10.71,10.3-25.13,16.07-37.9,16.07-18.13,0-33.78-11.54-33.78-37.9Z" transform="translate(-1060.96 -1325)"/>
<path class="cls-1" d="M1749.21,1393.67c11.54-11.12,25.54-17.3,42.44-17.3,18.13,0,33.78,11.54,33.78,37.9v184.58c0,5.36-3.3,8.65-9.06,8.65h-13.6c-5.77,0-9.06-3.3-9.06-8.65V1426.63c0-17.3-4.53-23.07-18.54-23.07-13.18,0-21.42,6.59-21.42,24.72v170.57c0,5.36-2.88,8.65-8.65,8.65h-14c-5.77,0-8.65-3.3-8.65-8.65V1426.63c0-17.3-4.94-23.07-18.54-23.07-14,0-21.42,7.42-21.42,24.72v170.57c0,5.36-3.3,8.65-9.06,8.65h-13.6c-5.77,0-9.06-3.3-9.06-8.65V1387.08c0-5.77,3.3-8.65,9.06-8.65h13.6c5.77,0,9.06,2.88,9.06,8.65v5.36c10.3-10.3,24.72-16.07,37.49-16.07C1732.32,1376.37,1743.44,1381.72,1749.21,1393.67Z" transform="translate(-1060.96 -1325)"/>
</svg>
